<?xml version="1.0" encoding="UTF-8"?>
<svg width="906px" height="885px" viewBox="0 0 906 885" version="1.1" xmlns="http://www.w3.org/2000/svg" xmlns:xlink="http://www.w3.org/1999/xlink">
    <!-- Generator: Sketch 61.2 (89653) - https://sketch.com -->
    <title>CIRCLE GRAPHIC</title>
    <desc>Created with Sketch.</desc>
    <g id="Page-1-Copy" stroke="none" stroke-width="1" fill="none" fill-rule="evenodd">
        <g id="Desktop" transform="translate(-267.000000, -135.000000)" fill="#EAEAEA">
            <g id="CIRCLE-GRAPHIC" transform="translate(267.000000, 135.000000)">
                <g id="Group-30">
                    <path d="M458,863 C399.144187,863 342.044576,851.439536 288.288482,828.640718 C236.36772,806.622309 189.740367,775.100445 149.70084,734.952642 C109.662494,694.806023 78.2256431,648.051394 56.2654354,595.992594 C33.5292862,542.092315 22,484.838293 22,425.820951 C22,366.803609 33.5292862,309.549588 56.2654354,255.650493 C78.2244621,203.590508 109.662494,156.837064 149.70084,116.688076 C189.741548,76.5414573 236.368901,45.0195934 288.288482,23 L291.968594,31.7254149 C241.175723,53.2665789 195.558157,84.1063256 156.383149,123.388456 C117.206961,162.669402 86.450387,208.410329 64.9673183,259.340557 C42.7260237,312.066079 31.4482985,368.079026 31.4482985,425.820951 C31.4482985,483.564061 42.7260237,539.575824 64.9673183,592.301346 C86.450387,643.232758 117.208142,688.973685 156.383149,728.254631 C195.556976,767.534393 241.174542,798.374139 291.968594,819.916488 C344.55428,842.217928 400.414983,853.526151 458,853.526151 L458,863 Z" id="Fill-6"></path>
                    <path d="M9.46420434,425.93145 C9.46420434,486.628012 21.3334996,545.507256 44.743209,600.93075 C67.3555592,654.467029 99.7278702,702.54898 140.961042,743.841456 C182.194215,785.131562 230.208489,817.548317 283.669414,840.193725 C339.016081,863.636431 397.81245,875.522456 458.422398,875.522456 L458.422398,885 C396.538331,885 336.502151,872.861635 279.983106,848.921358 C225.393575,825.799704 176.368997,792.700566 134.268667,750.54208 C92.16952,708.383593 59.1157863,659.289914 36.0266768,604.623439 C12.1212797,548.024729 4.54747351e-13,487.905112 4.54747351e-13,425.93145 L9.46420434,425.93145 Z M141.937038,109 L148.629414,115.701808 C108.392349,155.995588 76.8008352,202.915356 54.7362258,255.159134 C31.8920026,309.243925 20.3089995,366.700352 20.3089995,425.93145 C20.3089995,485.162547 31.8920026,542.61779 54.7362258,596.702581 C76.8008352,648.946359 108.392349,695.867311 148.629414,736.161091 C188.865296,776.453686 235.719022,808.088544 287.890449,830.186623 C341.899114,853.063045 399.27467,864.662375 458.422398,864.662375 C517.570126,864.662375 574.945681,853.063045 628.953163,830.186623 C681.125773,808.088544 727.979499,776.453686 768.215381,736.161091 C808.451263,695.868496 840.041594,648.948728 862.108569,596.702581 C884.952793,542.61779 896.535796,485.162547 896.535796,425.93145 C896.535796,366.700352 884.952793,309.243925 862.108569,255.159134 L870.825102,251.466445 C894.165012,306.726452 906,365.425622 906,425.93145 C906,486.437277 894.165012,545.135263 870.825102,600.396454 C848.281367,653.770429 816.010796,701.703109 774.906574,742.861715 C733.8059,784.023874 685.940687,816.339931 632.641837,838.915441 C577.459611,862.28825 518.843061,874.139919 458.422398,874.139919 C398.001734,874.139919 339.385184,862.28825 284.202958,838.915441 C230.904108,816.339931 183.038895,784.023874 141.937038,742.861715 C100.832816,701.70074 68.5622453,653.76806 46.0185106,600.396454 C22.6785996,545.135263 10.8447951,486.437277 10.8447951,425.93145 C10.8447951,365.425622 22.6785996,306.726452 46.0185106,251.466445 C68.5622453,198.09484 100.832816,150.162159 141.937038,109 Z" id="Fill-4"></path>
                    <path d="M627.695358,830 L624,821.271866 C674.98811,799.718694 720.779956,768.865149 760.10463,729.567812 C799.426933,690.270475 830.301011,644.509083 851.868527,593.554883 C874.194793,540.8034 885.515605,484.765391 885.515605,427 L895,427 C895,486.041378 883.426667,543.321017 860.602469,597.247783 C838.558363,649.33106 807.001409,696.104238 766.810098,736.270005 C726.617601,776.434587 679.813296,807.970554 627.695358,830" id="Fill-8"></path>
                    <path d="M620.307557,42 C568.90359,20.3828379 514.29524,9.42232193 458,9.42232193 L458,0 C515.569885,0 571.420895,11.2113853 624,33.3220415 L620.307557,42 Z" id="Fill-10"></path>
                    <path d="M458.729391,853 C401.258289,853 345.504294,841.715498 293.015408,819.45946 C242.318133,797.964494 196.789923,767.1944 157.692591,728.002718 C118.596442,688.811036 87.9013527,643.17039 66.4575998,592.35042 C44.2569947,539.733275 33,483.843044 33,426.230323 C33,368.618787 44.2569947,312.727371 66.4575998,260.111411 C87.9001702,209.290255 118.596442,163.649609 157.692591,124.457927 C196.78874,85.2662453 242.318133,54.4949661 293.015408,33 L296.700333,41.7345527 C247.131241,62.7517739 202.612955,92.8414071 164.383638,131.164139 C126.151956,169.488056 96.1368513,214.115124 75.1708614,263.80534 C53.4657579,315.246497 42.4606531,369.894354 42.4606531,426.230323 C42.4606531,482.566291 53.4657579,537.214148 75.1708614,588.655305 C96.1368513,638.345522 126.153139,682.97259 164.383638,721.296507 C202.614137,759.619238 247.131241,789.707686 296.700333,810.726093 C348.01728,832.483048 402.531929,843.516229 458.729391,843.516229 C514.926853,843.516229 569.441502,832.483048 620.75845,810.726093 C670.327542,789.707686 714.844645,759.619238 753.076327,721.296507 C791.305644,682.971404 821.320749,638.345522 842.287921,588.655305 L851,592.35042 C829.55743,643.17039 798.861158,688.80985 759.766191,728.002718 C720.66886,767.193214 675.140649,797.964494 624.444557,819.45946 C571.954488,841.715498 516.200494,853 458.729391,853" id="Fill-12"></path>
                    <path d="M171.681424,139 L165,132.32101 C203.053528,94.2813474 247.366831,64.4153892 296.709214,43.5531389 C347.798429,21.9517959 402.064775,11 458,11 L458,20.4452746 C403.335627,20.4452746 350.308244,31.1467707 300.38949,52.2522368 C252.173866,72.6386814 208.869213,101.82458 171.681424,139" id="Fill-14"></path>
                    <path d="M164.32101,720 C126.281347,681.804585 96.4153892,637.324674 75.5531389,587.79559 C53.9529766,536.514291 43,482.043917 43,425.898388 C43,369.751673 53.9529766,315.281298 75.5531389,264 L84.2522368,267.695298 C63.1467707,317.80055 52.4452746,371.028489 52.4452746,425.898388 C52.4452746,480.768286 63.1467707,533.995039 84.2522368,584.100292 C104.638681,632.49838 133.82458,675.965848 171,713.294641 L164.32101,720 Z" id="Fill-16"></path>
                    <path d="M457.543347,842 C401.518579,842 347.167656,831.048103 296,809.446561 L299.687194,800.748563 C349.681384,821.854224 402.792595,832.554638 457.543347,832.554638 C512.2941,832.554638 565.405311,821.854224 615.398317,800.748563 C663.693819,780.36075 707.06478,751.173402 744.309345,714 L751,720.677871 C712.88953,758.717884 668.507163,788.582937 619.086695,809.446561 C567.919038,831.048103 513.568116,842 457.543347,842" id="Fill-18"></path>
                    <path d="M64.4433165,426 L55,426 C55,371.352416 65.6638651,318.337519 86.6953114,268.426857 C107.009066,220.221155 136.087398,176.928914 173.125266,139.752728 C210.164314,102.576542 253.295481,73.3884313 301.320648,53 L305,61.7297746 C258.099769,81.6407223 215.977855,110.146375 179.804051,146.455271 C143.629067,182.764166 115.229473,225.043384 95.3926059,272.118765 C74.8557533,320.855267 64.4433165,372.628471 64.4433165,426" id="Fill-20"></path>
                    <path d="M301.310093,799 C253.130519,778.622509 209.861743,749.450061 172.705707,712.293824 C135.549671,675.138772 106.378565,631.869761 86,583.691111 L94.725043,580 C114.626383,627.05012 143.116585,669.30665 179.404617,705.596062 C215.693833,741.88429 257.950135,770.374647 305,790.276094 L301.310093,799 Z" id="Fill-22"></path>
                    <path d="M459,832 L459,822.414962 C512.17582,822.414962 563.76032,811.846259 612.320368,791 L616,799.826622 C566.268892,821.176096 513.447223,832 459,832" id="Fill-24"></path>
                    <path d="M104.717486,277 L96,273.305614 C115.813114,226.363433 144.179254,184.204037 180.306892,148 L187,154.707042 C151.737249,190.043206 124.053788,231.187714 104.717486,277" id="Fill-26"></path>
                    <path d="M458,819 C404.947955,819 353.479729,808.608253 305.025489,788.113155 C258.225985,768.320138 216.198033,739.98277 180.107041,703.891777 C144.01723,667.801967 115.679862,625.775197 95.8856632,578.975693 C75.3917474,530.520271 65,479.050863 65,426 L74.4556391,426 C74.4556391,477.77908 84.5956301,528.008617 104.594307,575.29154 C123.912177,620.963459 151.567558,661.980839 186.793359,697.206641 C222.019161,732.432442 263.036541,760.087823 308.70846,779.405693 C355.991383,799.40437 406.219738,809.544361 458,809.544361 L458,819 Z" id="Fill-28"></path>
                </g>
            </g>
        </g>
    </g>
</svg>