<?xml version="1.0" encoding="UTF-8"?>
<svg width="642px" height="563px" viewBox="0 0 642 563" version="1.1" xmlns="http://www.w3.org/2000/svg" xmlns:xlink="http://www.w3.org/1999/xlink">
    <!-- Generator: Sketch 63 (92445) - https://sketch.com -->
    <title>element-Mercury-H</title>
    <desc>Created with Sketch.</desc>
    <defs>
        <linearGradient x1="50%" y1="0%" x2="50%" y2="127.630838%" id="linearGradient-1">
            <stop stop-color="#688FA5" offset="0%"></stop>
            <stop stop-color="#8BBCD9" offset="100%"></stop>
        </linearGradient>
    </defs>
    <g id="layout" stroke="none" stroke-width="1" fill="none" fill-rule="evenodd">
        <polygon id="element-Mercury-H" fill="url(#linearGradient-1)" fill-rule="nonzero" points="265.124 562.13 265.124 545.35 204.716 500.883 204.716 286.938 437.119 286.938 437.119 500.883 375.872 545.35 375.872 562.13 641.835 562.13 641.835 545.35 580.588 500.883 580.588 60.408 641.835 16.78 641.835 0 375.872 0 375.872 16.78 437.119 60.408 437.119 270.158 204.716 270.158 204.716 60.408 265.124 16.78 265.124 0 -4.54747351e-13 0 -4.54747351e-13 16.78 60.408 60.408 60.408 500.883 -4.54747351e-13 545.35 -4.54747351e-13 562.13"></polygon>
    </g>
</svg>