<?xml version="1.0" encoding="UTF-8"?>
<svg width="474px" height="445px" viewBox="0 0 474 445" version="1.1" xmlns="http://www.w3.org/2000/svg" xmlns:xlink="http://www.w3.org/1999/xlink">
    <!-- Generator: Sketch 63 (92445) - https://sketch.com -->
    <title>element-Tantalum-a</title>
    <desc>Created with Sketch.</desc>
    <defs>
        <linearGradient x1="50%" y1="-9.1174837%" x2="50%" y2="127.690015%" id="linearGradient-1">
            <stop stop-color="#797A7B" offset="0%"></stop>
            <stop stop-color="#CDCFD0" offset="100%"></stop>
        </linearGradient>
    </defs>
    <g id="layout" stroke="none" stroke-width="1" fill="none" fill-rule="evenodd">
        <path d="M367.432,444.746 C411.899,444.746 452.171,428.805 473.985,377.626 L467.273,372.592 C457.205,385.177 445.459,391.05 433.713,391.05 C412.738,391.05 398.475,371.753 398.475,344.066 L398.475,157.808 C398.475,43.704 327.999,0.076 198.793,0.076 C161.038,0.076 107.342,8.466 29.315,32.797 L29.315,163.681 L47.773,163.681 L203.827,16.856 C242.421,18.534 262.557,45.382 262.557,77.264 L262.557,200.597 L163.555,200.597 C66.231,200.597 0.789,240.03 0.789,324.769 C0.789,394.406 54.485,444.746 134.19,444.746 C217.251,444.746 250.811,396.923 260.879,354.134 L265.074,354.134 C275.981,427.966 331.355,444.746 367.432,444.746 Z M203.827,377.626 C171.945,377.626 151.809,353.295 151.809,306.311 C151.809,271.912 160.199,227.445 223.124,218.216 L262.557,214.021 L262.557,293.726 C262.557,353.295 235.709,377.626 203.827,377.626 Z" id="element-Tantalum-a" fill="url(#linearGradient-1)" fill-rule="nonzero"></path>
    </g>
</svg>