<?xml version="1.0" encoding="UTF-8"?>
<svg width="542px" height="581px" viewBox="0 0 542 581" version="1.1" xmlns="http://www.w3.org/2000/svg" xmlns:xlink="http://www.w3.org/1999/xlink">
    <!-- Generator: Sketch 63 (92445) - https://sketch.com -->
    <title>element-Mercury-g</title>
    <desc>Created with Sketch.</desc>
    <defs>
        <linearGradient x1="50%" y1="-11.4414288%" x2="50%" y2="121.48012%" id="linearGradient-1">
            <stop stop-color="#688FA5" offset="0%"></stop>
            <stop stop-color="#8BBCD9" offset="100%"></stop>
        </linearGradient>
    </defs>
    <g id="layout" stroke="none" stroke-width="1" fill="none" fill-rule="evenodd">
        <path d="M229.455,580.664 C354.466,580.664 480.316,540.392 480.316,396.084 L480.316,72.23 L541.563,27.763 L541.563,10.983 L341.042,10.983 L341.042,115.858 C323.423,43.704 263.015,0.076 183.31,0.076 C75.079,0.076 0.408,74.747 0.408,206.47 C0.408,337.354 75.079,412.864 183.31,412.864 C263.015,412.864 323.423,368.397 341.042,296.243 L341.042,370.914 C341.042,493.408 319.228,566.401 228.616,566.401 C216.031,566.401 201.768,565.562 186.666,563.045 L59.138,406.991 L41.519,406.991 L41.519,546.265 C85.147,561.367 158.979,580.664 229.455,580.664 Z M243.718,353.295 C184.149,353.295 147.233,292.887 147.233,206.47 C147.233,120.053 184.149,59.645 243.718,59.645 C299.931,59.645 341.042,115.019 341.042,203.953 L341.042,208.148 C341.042,297.082 299.931,353.295 243.718,353.295 Z" id="element-Mercury-g" fill="url(#linearGradient-1)"></path>
    </g>
</svg>