<?xml version="1.0" encoding="UTF-8"?>
<svg width="25px" height="28px" viewBox="0 0 25 28" version="1.1" xmlns="http://www.w3.org/2000/svg" xmlns:xlink="http://www.w3.org/1999/xlink">
    <!-- Generator: Sketch 62 (91390) - https://sketch.com -->
    <title>icon-about white</title>
    <desc>Created with Sketch.</desc>
    <defs>
        <polygon id="path-1" points="0 0 25 0 25 27.9998783 0 27.9998783"></polygon>
    </defs>
    <g id="layout" stroke="none" stroke-width="1" fill="none" fill-rule="evenodd" opacity="0.49">
        <g id="Menu-Copy-2" transform="translate(-509.000000, -575.000000)">
            <g id="icon-elements" transform="translate(503.000000, 573.000000)">
                <g id="icon-elements-black" transform="translate(5.706957, 2.000000)">
                    <g id="Group-3" transform="translate(0.293043, 0.000000)">
                        <mask id="mask-2" fill="white">
                            <use xlink:href="#path-1"></use>
                        </mask>
                        <g id="Clip-2"></g>
                        <path d="M22.5,23.6172696 C22.5,24.6885739 21.6,25.5650957 20.5,25.5650957 L4.5,25.5650957 C3.4,25.5650957 2.5,24.6885739 2.5,23.6172696 L2.5,4.38248696 C2.5,4.12683478 2.55,3.87118261 2.65,3.65205217 C2.95,2.9337913 3.6625,2.43466087 4.5,2.43466087 L20.5,2.43466087 C21.6,2.43466087 22.5,3.31118261 22.5,4.38248696 L22.5,7.30422609 L25,7.30422609 L25,4.38248696 C25,1.95987826 22.9875,-0.00012173913 20.5,-0.00012173913 L4.5,-0.00012173913 C2.0125,-0.00012173913 0,1.95987826 0,4.38248696 L0,23.6172696 C0,26.0398783 2.0125,27.9998783 4.5,27.9998783 L20.5,27.9998783 C22.9875,27.9998783 25,26.0398783 25,23.6172696 L25,23.130313 L22.5,23.130313 L22.5,23.6172696 Z" id="Fill-1" fill="#000000" mask="url(#mask-2)"></path>
                    </g>
                    <path d="M8.29649572,13.3913808 C8.66473508,12.0765172 9.02146695,10.5672823 9.33216891,9.18381706 L9.41272127,9.18381706 C9.52319308,9.60343008 9.01916546,7.62084433 10.8166338,14.6262093 L7.97428629,14.6262093 L8.29649572,13.3913808 Z M5.29304348,14.6262093 L5.29304348,20 L6.54735878,20 L7.37589733,16.8671944 L11.4035153,16.8671944 L12.2320538,20 L15.2930435,20 L11.1733657,7 L7.70961425,7 L5.29304348,14.6262093 Z" id="Fill-4" fill="#000000"></path>
                    <path d="M19.4525029,17.6445916 C18.6984489,17.6445916 18.2119624,17.3046358 18.2119624,16.6125828 C18.2119624,15.7869757 18.9660165,15.1434879 21.2160165,14.8399558 L21.2160165,16.7461369 C20.656557,17.3046358 20.1579083,17.6445916 19.4525029,17.6445916 M23.6484489,10.7726269 C22.9223678,9.47593819 21.6161516,9 20.1457462,9 C18.5184489,9 17.0407462,9.54757174 15.6700705,10.3853201 C15.7357462,10.5055188 16.820611,12.5149007 16.7525029,12.3874172 C17.7619624,11.8046358 18.6498002,11.4282561 19.5498002,11.4282561 C20.6200705,11.4282561 21.0943948,11.9624724 21.2160165,12.7637969 L21.2160165,12.9944812 C18.3214219,13.3089404 15.2930435,14.0398455 15.2930435,16.8432671 C15.2930435,18.6171082 16.5116921,20 18.4308813,20 C19.4889894,20 20.3889894,19.5507726 21.2160165,18.9072848 C21.3133137,18.8344371 21.410611,18.7494481 21.5079083,18.6644592 L21.5808813,18.6644592 L21.7998002,19.7450331 L24.2930435,19.7450331 L24.2930435,13.7350993 C24.2930435,12.5100442 24.0741246,11.513245 23.6484489,10.7726269" id="Fill-6" fill="#000000"></path>
                </g>
            </g>
        </g>
    </g>
</svg>