<?xml version="1.0" encoding="UTF-8"?>
<svg width="23px" height="35px" viewBox="0 0 23 35" version="1.1" xmlns="http://www.w3.org/2000/svg" xmlns:xlink="http://www.w3.org/1999/xlink">
    <!-- Generator: Sketch 62 (91390) - https://sketch.com -->
    <title>icon-about white</title>
    <desc>Created with Sketch.</desc>
    <defs>
        <polygon id="path-1" points="0.590923466 0 23.5909235 0 23.5909235 35 0.590923466 35"></polygon>
    </defs>
    <g id="layout" stroke="none" stroke-width="1" fill="none" fill-rule="evenodd" opacity="0.49">
        <g id="Menu-Copy-2" transform="translate(-510.000000, -571.000000)">
            <g id="icon-about" transform="translate(503.000000, 573.000000)">
                <g id="icon-about-black" transform="translate(6.409077, -2.000000)">
                    <mask id="mask-2" fill="white">
                        <use xlink:href="#path-1"></use>
                    </mask>
                    <g id="Clip-2"></g>
                    <path d="M16.3277656,15.1263298 L16.3277656,5.64328457 C16.3277656,4.45644947 15.3230287,3.49069149 14.0882919,3.49069149 L13.9067129,3.49069149 L13.9067129,1.16356383 C13.9067129,0.521276596 13.3643972,0 12.6961866,0 C12.0279761,0 11.4856603,0.521276596 11.4856603,1.16356383 L11.4856603,3.49069149 L11.3040814,3.49069149 C10.0693445,3.49069149 9.06460768,4.45644947 9.06460768,5.64328457 L9.06460768,12.7992021 L11.4856603,12.7992021 L11.4856603,6.98138298 L13.9067129,6.98138298 L13.9067129,19.7805851 L11.4856603,19.7805851 L11.4856603,15.1263298 L0.590923466,15.1263298 L0.590923466,28.2862367 L12.0909235,35 L23.5909235,28.2862367 L23.5909235,15.1263298 L16.3277656,15.1263298 Z" id="Fill-1" fill="#000000" mask="url(#mask-2)"></path>
                </g>
            </g>
        </g>
    </g>
</svg>