<?xml version="1.0" encoding="UTF-8"?>
<svg width="26px" height="21px" viewBox="0 0 26 21" version="1.1" xmlns="http://www.w3.org/2000/svg" xmlns:xlink="http://www.w3.org/1999/xlink">
    <!-- Generator: Sketch 62 (91390) - https://sketch.com -->
    <title>Twitter icon Copy</title>
    <desc>Created with Sketch.</desc>
    <g id="layout" stroke="none" stroke-width="1" fill="none" fill-rule="evenodd" opacity="0.49">
        <g id="Menu-Copy-2" transform="translate(-1322.000000, -577.000000)" fill="#000000">
            <g id="Twitter-icon" transform="translate(1316.000000, 572.000000)">
                <path d="M32,7.4841323 C31.2766695,8.5637449 30.3976041,9.47706646 29.3499332,10.2356094 L29.3499332,10.9250777 C29.3499332,12.342389 29.1465769,13.757142 28.7385773,15.1706158 C28.3228553,16.5879271 27.6921935,17.9489554 26.8401564,19.2549796 C25.9855453,20.5571664 24.9661898,21.7122495 23.7859512,22.7087166 C22.6018514,23.7051837 21.1835058,24.5008223 19.5296272,25.1007492 C17.8693134,25.7006761 16.0918766,26 14.1831592,26 C10.9745062,26 8.24464135,25.2772736 6,23.8458915 C6.42344438,23.9034537 6.84045344,23.9354328 7.26261076,23.9354328 C9.57160537,23.9354328 11.7737736,23.0975818 13.8832731,21.4206006 C12.7416465,21.400134 11.7119945,21.0483645 10.7968912,20.3576171 C9.88822336,19.6707072 9.25884857,18.799598 8.91777635,17.7442895 C9.25884857,17.8031309 9.59219841,17.8351099 9.91396466,17.8351099 C10.3914658,17.8351099 10.8651057,17.7749893 11.325875,17.6547481 C10.1031632,17.4142657 9.08252067,16.8066638 8.27038265,15.8306633 C7.45824464,14.8533837 7.05410623,13.7238838 7.05410623,12.4460011 L7.05410623,12.389718 C7.81604871,12.8092831 8.6178902,13.0280197 9.45963071,13.0484863 C7.87396664,11.9918986 7.08242166,10.5247 7.08242166,8.6507279 C7.08242166,7.77450204 7.32310282,6.91618444 7.80446513,6.0796126 C9.14687392,7.69135652 10.7672887,8.97563501 12.6657096,9.92093562 C14.5602693,10.8700737 16.6041285,11.4047634 18.7882778,11.5211671 C18.7084798,11.1834684 18.6711549,10.7766949 18.6711549,10.2970092 C18.6711549,8.84132302 19.1846938,7.59414022 20.218207,6.55801913 C21.2491461,5.52189803 22.514331,5 23.9970299,5 C25.5222019,5 26.8247116,5.56283121 27.9071333,6.67698118 C29.0925202,6.43777791 30.2122667,6.00797953 31.2766695,5.39270269 C30.8802535,6.66930621 30.0964309,7.64530669 28.931637,8.31942499 C29.9561408,8.20302126 30.9754963,7.92416398 32,7.4841323"></path>
            </g>
        </g>
    </g>
</svg>