<?xml version="1.0" encoding="UTF-8"?>
<svg width="379px" height="445px" viewBox="0 0 379 445" version="1.1" xmlns="http://www.w3.org/2000/svg" xmlns:xlink="http://www.w3.org/1999/xlink">
    <!-- Generator: Sketch 63.1 (92452) - https://sketch.com -->
    <title>s</title>
    <desc>Created with Sketch.</desc>
    <defs>
        <linearGradient x1="50%" y1="0%" x2="50%" y2="100%" id="linearGradient-1">
            <stop stop-color="#8B6C37" offset="0%"></stop>
            <stop stop-color="#A98445" offset="100%"></stop>
        </linearGradient>
    </defs>
    <g id="layout" stroke="none" stroke-width="1" fill="none" fill-rule="evenodd">
        <g id="Desktop" transform="translate(-800.000000, -16838.000000)" fill="url(#linearGradient-1)">
            <path d="M992.244752,17282.746 C1071.94975,17282.746 1178.50275,17260.093 1178.50275,17152.701 C1178.50275,17080.547 1129.84075,17044.47 1059.36475,17018.461 L988.888752,16993.291 C939.387752,16975.672 920.090752,16957.214 920.090752,16919.459 C920.090752,16882.543 938.548752,16854.017 984.693752,16854.017 C998.956752,16854.017 1012.38075,16859.051 1019.09275,16867.441 L1144.94275,17007.554 L1161.72275,17007.554 L1161.72275,16843.11 L1144.94275,16843.11 L1097.95875,16857.373 C1061.04275,16845.627 1019.09275,16838.076 979.659752,16838.076 C895.759752,16838.076 800.113752,16871.636 800.113752,16969.799 C800.113752,17041.953 848.775752,17079.708 922.607752,17106.556 L993.922752,17131.726 C1027.48275,17143.472 1054.33075,17165.286 1054.33075,17207.236 C1054.33075,17239.118 1037.55075,17264.288 984.693752,17264.288 C974.625752,17264.288 958.684752,17261.771 946.938752,17247.508 L821.088752,17104.878 L804.308752,17104.878 L804.308752,17277.712 L821.088752,17277.712 L868.072752,17260.932 C903.310752,17274.356 941.904752,17282.746 992.244752,17282.746 Z" id="s"></path>
        </g>
    </g>
</svg>