<?xml version="1.0" encoding="UTF-8"?>
<svg width="24px" height="20px" viewBox="0 0 24 20" version="1.1" xmlns="http://www.w3.org/2000/svg" xmlns:xlink="http://www.w3.org/1999/xlink">
    <!-- Generator: Sketch 62 (91390) - https://sketch.com -->
    <title>num-14</title>
    <desc>Created with Sketch.</desc>
    <g id="num-14" stroke="none" stroke-width="1" fill="none" fill-rule="evenodd">
        <path d="M8.62,15 L8.62,14.68 L7.276,13.832 L7.276,5.448 L7.132,5.448 L3.244,6.44 L3.276,6.744 L4.54,7.112 L4.54,13.832 L3.228,14.68 L3.228,15 L8.62,15 Z M17.484,16.024 L17.484,15.704 L16.204,14.872 L16.204,13.048 L18.364,13.048 L18.364,12.712 L16.204,12.712 L16.204,5.624 L14.028,5.624 L8.556,12.712 L8.556,13.048 L13.532,13.048 L13.532,14.872 L12.06,15.704 L12.06,16.024 L17.484,16.024 Z M13.532,12.712 L9.004,12.712 L13.532,6.872 L13.532,12.712 Z M20.508,15.08 C21.372,15.08 22.012,14.424 22.012,13.592 C22.012,12.776 21.372,12.088 20.508,12.088 C19.628,12.088 19.004,12.776 19.004,13.592 C19.004,14.424 19.628,15.08 20.508,15.08 Z" id="14." fill="#D63030" fill-rule="nonzero"></path>
    </g>
</svg>