<?xml version="1.0" encoding="UTF-8"?>
<svg width="24px" height="20px" viewBox="0 0 24 20" version="1.1" xmlns="http://www.w3.org/2000/svg" xmlns:xlink="http://www.w3.org/1999/xlink">
    <!-- Generator: Sketch 62 (91390) - https://sketch.com -->
    <title>num-18</title>
    <desc>Created with Sketch.</desc>
    <g id="num-18" stroke="none" stroke-width="1" fill="none" fill-rule="evenodd">
        <path d="M9.044,15 L9.044,14.68 L7.7,13.832 L7.7,5.448 L7.556,5.448 L3.668,6.44 L3.7,6.744 L4.964,7.112 L4.964,13.832 L3.652,14.68 L3.652,15 L9.044,15 Z M13.348,15.224 C16.244,15.224 18.164,13.944 18.164,12.008 C18.164,10.28 16.724,9.592 15.332,8.76 C16.5,8.392 17.46,7.832 17.46,6.6 C17.46,5.192 16.02,4.04 13.604,4.04 C11.236,4.04 9.524,5.176 9.524,7.304 C9.524,8.664 10.18,9.384 11.508,10.248 C10.244,10.616 9.22,11.416 9.22,12.712 C9.22,14.232 10.804,15.224 13.348,15.224 Z M14.74,8.44 L13.988,8.04 C12.772,7.304 12.02,6.872 12.02,5.88 C12.02,5.16 12.516,4.328 13.892,4.328 C15.428,4.328 15.844,5.384 15.844,6.216 C15.844,7.208 15.492,7.848 14.74,8.44 Z M13.428,14.952 C11.636,14.952 11.124,13.816 11.124,12.728 C11.124,11.832 11.46,11.096 12.004,10.568 C12.164,10.648 12.308,10.744 12.468,10.84 L13.54,11.384 C14.564,11.944 15.412,12.376 15.412,13.432 C15.412,14.248 14.82,14.952 13.428,14.952 Z M20.084,15.08 C20.948,15.08 21.588,14.424 21.588,13.592 C21.588,12.776 20.948,12.088 20.084,12.088 C19.204,12.088 18.58,12.776 18.58,13.592 C18.58,14.424 19.204,15.08 20.084,15.08 Z" id="18." fill="#D63030" fill-rule="nonzero"></path>
    </g>
</svg>