<?xml version="1.0" encoding="UTF-8"?>
<svg width="24px" height="20px" viewBox="0 0 24 20" version="1.1" xmlns="http://www.w3.org/2000/svg" xmlns:xlink="http://www.w3.org/1999/xlink">
    <!-- Generator: Sketch 62 (91390) - https://sketch.com -->
    <title>num-02</title>
    <desc>Created with Sketch.</desc>
    <g id="num-02" stroke="none" stroke-width="1" fill="none" fill-rule="evenodd">
        <path d="M14.572,15 L14.572,11.208 L14.236,11.208 L13.276,12.68 L8.828,12.68 L8.812,12.632 L10.924,11.736 C13.74,11 14.604,9.512 14.604,8.232 C14.604,6.52 13.148,5.464 10.972,5.464 C9.628,5.464 8.492,5.88 7.228,6.328 L7.228,9.384 L7.564,9.384 L10.348,5.752 C10.476,5.736 10.604,5.72 10.732,5.72 C11.516,5.72 12.108,6.008 12.108,7.336 C12.108,8.312 11.596,9.064 10.316,10.552 L6.732,14.776 L6.732,15 L14.572,15 Z M16.924,15.08 C17.788,15.08 18.428,14.424 18.428,13.592 C18.428,12.776 17.788,12.088 16.924,12.088 C16.044,12.088 15.42,12.776 15.42,13.592 C15.42,14.424 16.044,15.08 16.924,15.08 Z" id="2." fill="#D63030" fill-rule="nonzero"></path>
    </g>
</svg>