<?xml version="1.0" encoding="UTF-8"?>
<svg width="24px" height="20px" viewBox="0 0 24 20" version="1.1" xmlns="http://www.w3.org/2000/svg" xmlns:xlink="http://www.w3.org/1999/xlink">
    <!-- Generator: Sketch 62 (91390) - https://sketch.com -->
    <title>num-16</title>
    <desc>Created with Sketch.</desc>
    <g id="num-16" stroke="none" stroke-width="1" fill="none" fill-rule="evenodd">
        <path d="M9.036,15 L9.036,14.68 L7.692,13.832 L7.692,5.448 L7.548,5.448 L3.66,6.44 L3.692,6.744 L4.956,7.112 L4.956,13.832 L3.644,14.68 L3.644,15 L9.036,15 Z M14.124,15.224 C16.556,15.224 18.252,13.784 18.252,11.544 C18.252,9.496 16.812,8.088 14.716,8.088 C13.516,8.088 12.62,8.568 12.188,9.432 L12.188,9.368 C12.204,8.248 12.332,6.728 12.684,5.72 C12.972,4.952 13.484,4.344 14.284,4.344 C14.412,4.344 14.54,4.36 14.7,4.376 L17.356,7.976 L17.708,7.976 L17.724,5.016 C16.652,4.488 15.42,4.056 14.044,4.056 C12.78,4.056 11.708,4.536 10.924,5.384 C9.948,6.424 9.436,8.072 9.436,9.88 C9.436,13.304 11.292,15.224 14.124,15.224 Z M14.028,14.856 C13.148,14.856 12.476,14.04 12.476,11.672 C12.476,9.464 13.068,8.504 14.044,8.504 C14.956,8.504 15.676,9.352 15.676,11.656 C15.676,13.976 14.956,14.856 14.028,14.856 Z M20.092,15.08 C20.956,15.08 21.596,14.424 21.596,13.592 C21.596,12.776 20.956,12.088 20.092,12.088 C19.212,12.088 18.588,12.776 18.588,13.592 C18.588,14.424 19.212,15.08 20.092,15.08 Z" id="16." fill="#D63030" fill-rule="nonzero"></path>
    </g>
</svg>