<?xml version="1.0" encoding="UTF-8"?>
<svg width="24px" height="20px" viewBox="0 0 24 20" version="1.1" xmlns="http://www.w3.org/2000/svg" xmlns:xlink="http://www.w3.org/1999/xlink">
    <!-- Generator: Sketch 62 (91390) - https://sketch.com -->
    <title>num-03</title>
    <desc>Created with Sketch.</desc>
    <g id="num-03" stroke="none" stroke-width="1" fill="none" fill-rule="evenodd">
        <path d="M11.052,16.024 C13.436,16.024 14.828,14.872 14.828,13.24 C14.828,11.576 13.26,10.824 10.716,10.648 L10.716,10.6 C12.476,10.456 14.572,9.88 14.572,8.152 C14.572,6.6 13.004,5.448 10.684,5.448 C9.276,5.448 8.044,5.864 7.084,6.216 L7.1,9.336 L7.452,9.336 L9.884,5.768 C10.076,5.736 10.268,5.72 10.444,5.72 C11.164,5.72 11.564,6.232 11.564,8.136 C11.564,9.208 11.148,10.152 10.124,10.424 L9.772,10.552 L9.772,10.792 L10.108,10.888 C11.372,11.224 11.836,11.896 11.836,13.192 C11.836,14.84 11.564,15.752 10.716,15.752 C10.556,15.752 10.38,15.736 10.204,15.72 L7.436,12.104 L7.084,12.104 L7.068,15.256 C8.028,15.592 9.34,16.024 11.052,16.024 Z M16.94,15.08 C17.804,15.08 18.444,14.424 18.444,13.592 C18.444,12.776 17.804,12.088 16.94,12.088 C16.06,12.088 15.436,12.776 15.436,13.592 C15.436,14.424 16.06,15.08 16.94,15.08 Z" id="3." fill="#D63030" fill-rule="nonzero"></path>
    </g>
</svg>