<?xml version="1.0" encoding="UTF-8"?>
<svg width="24px" height="20px" viewBox="0 0 24 20" version="1.1" xmlns="http://www.w3.org/2000/svg" xmlns:xlink="http://www.w3.org/1999/xlink">
    <!-- Generator: Sketch 62 (91390) - https://sketch.com -->
    <title>num-13</title>
    <desc>Created with Sketch.</desc>
    <g id="num-13" stroke="none" stroke-width="1" fill="none" fill-rule="evenodd">
        <path d="M9.364,15 L9.364,14.68 L8.02,13.832 L8.02,5.448 L7.876,5.448 L3.988,6.44 L4.02,6.744 L5.284,7.112 L5.284,13.832 L3.972,14.68 L3.972,15 L9.364,15 Z M13.876,16.024 C16.26,16.024 17.652,14.872 17.652,13.24 C17.652,11.576 16.084,10.824 13.54,10.648 L13.54,10.6 C15.3,10.456 17.396,9.88 17.396,8.152 C17.396,6.6 15.828,5.448 13.508,5.448 C12.1,5.448 10.868,5.864 9.908,6.216 L9.924,9.336 L10.276,9.336 L12.708,5.768 C12.9,5.736 13.092,5.72 13.268,5.72 C13.988,5.72 14.388,6.232 14.388,8.136 C14.388,9.208 13.972,10.152 12.948,10.424 L12.596,10.552 L12.596,10.792 L12.932,10.888 C14.196,11.224 14.66,11.896 14.66,13.192 C14.66,14.84 14.388,15.752 13.54,15.752 C13.38,15.752 13.204,15.736 13.028,15.72 L10.26,12.104 L9.908,12.104 L9.892,15.256 C10.852,15.592 12.164,16.024 13.876,16.024 Z M19.764,15.08 C20.628,15.08 21.268,14.424 21.268,13.592 C21.268,12.776 20.628,12.088 19.764,12.088 C18.884,12.088 18.26,12.776 18.26,13.592 C18.26,14.424 18.884,15.08 19.764,15.08 Z" id="13." fill="#D63030" fill-rule="nonzero"></path>
    </g>
</svg>