<?xml version="1.0" encoding="UTF-8"?>
<svg width="24px" height="20px" viewBox="0 0 24 20" version="1.1" xmlns="http://www.w3.org/2000/svg" xmlns:xlink="http://www.w3.org/1999/xlink">
    <!-- Generator: Sketch 62 (91390) - https://sketch.com -->
    <title>num-06</title>
    <desc>Created with Sketch.</desc>
    <g id="num-06" stroke="none" stroke-width="1" fill="none" fill-rule="evenodd">
        <path d="M11.3,15.224 C13.732,15.224 15.428,13.784 15.428,11.544 C15.428,9.496 13.988,8.088 11.892,8.088 C10.692,8.088 9.796,8.568 9.364,9.432 L9.364,9.368 C9.38,8.248 9.508,6.728 9.86,5.72 C10.148,4.952 10.66,4.344 11.46,4.344 C11.588,4.344 11.716,4.36 11.876,4.376 L14.532,7.976 L14.884,7.976 L14.9,5.016 C13.828,4.488 12.596,4.056 11.22,4.056 C9.956,4.056 8.884,4.536 8.1,5.384 C7.124,6.424 6.612,8.072 6.612,9.88 C6.612,13.304 8.468,15.224 11.3,15.224 Z M11.204,14.856 C10.324,14.856 9.652,14.04 9.652,11.672 C9.652,9.464 10.244,8.504 11.22,8.504 C12.132,8.504 12.852,9.352 12.852,11.656 C12.852,13.976 12.132,14.856 11.204,14.856 Z M17.268,15.08 C18.132,15.08 18.772,14.424 18.772,13.592 C18.772,12.776 18.132,12.088 17.268,12.088 C16.388,12.088 15.764,12.776 15.764,13.592 C15.764,14.424 16.388,15.08 17.268,15.08 Z" id="6." fill="#D63030" fill-rule="nonzero"></path>
    </g>
</svg>