<?xml version="1.0" encoding="UTF-8"?>
<svg width="24px" height="20px" viewBox="0 0 24 20" version="1.1" xmlns="http://www.w3.org/2000/svg" xmlns:xlink="http://www.w3.org/1999/xlink">
    <!-- Generator: Sketch 62 (91390) - https://sketch.com -->
    <title>num-09</title>
    <desc>Created with Sketch.</desc>
    <g id="num-09" stroke="none" stroke-width="1" fill="none" fill-rule="evenodd">
        <path d="M10.676,16.184 C11.908,16.184 12.932,15.704 13.684,14.872 C14.628,13.832 15.204,12.2 15.204,10.408 C15.204,7.224 13.268,5.448 10.548,5.448 C8.196,5.448 6.564,6.872 6.564,8.968 C6.564,10.888 7.94,12.28 9.956,12.28 C11.092,12.28 11.924,11.88 12.34,11.08 L12.34,11.144 C12.308,12.232 12.244,13.544 11.924,14.536 C11.668,15.304 11.188,15.896 10.436,15.896 C10.34,15.896 10.244,15.896 10.148,15.88 L7.46,12.52 L7.124,12.52 L7.108,15.256 C8.148,15.768 9.348,16.184 10.676,16.184 Z M10.644,11.864 C9.796,11.864 9.14,11.032 9.14,8.872 C9.14,6.696 9.796,5.816 10.676,5.816 C11.46,5.816 12.068,6.616 12.068,8.856 C12.068,11.048 11.54,11.864 10.644,11.864 Z M17.14,15.08 C18.004,15.08 18.644,14.424 18.644,13.592 C18.644,12.776 18.004,12.088 17.14,12.088 C16.26,12.088 15.636,12.776 15.636,13.592 C15.636,14.424 16.26,15.08 17.14,15.08 Z" id="9." fill="#D63030" fill-rule="nonzero"></path>
    </g>
</svg>