<?xml version="1.0" encoding="UTF-8"?>
<svg width="24px" height="20px" viewBox="0 0 24 20" version="1.1" xmlns="http://www.w3.org/2000/svg" xmlns:xlink="http://www.w3.org/1999/xlink">
    <!-- Generator: Sketch 62 (91390) - https://sketch.com -->
    <title>num-10</title>
    <desc>Created with Sketch.</desc>
    <g id="num-10" stroke="none" stroke-width="1" fill="none" fill-rule="evenodd">
        <path d="M8.628,15 L8.628,14.68 L7.284,13.832 L7.284,5.448 L7.14,5.448 L3.252,6.44 L3.284,6.744 L4.548,7.112 L4.548,13.832 L3.236,14.68 L3.236,15 L8.628,15 Z M13.78,15.224 C16.516,15.224 18.74,12.984 18.74,10.344 C18.74,7.688 16.516,5.448 13.78,5.448 C11.028,5.448 8.804,7.688 8.804,10.344 C8.804,12.984 11.028,15.224 13.78,15.224 Z M13.78,14.904 C12.516,14.904 11.828,13.432 11.828,10.344 C11.828,7.24 12.516,5.768 13.78,5.768 C15.028,5.768 15.732,7.24 15.732,10.344 C15.732,13.432 15.028,14.904 13.78,14.904 Z M20.5,15.08 C21.364,15.08 22.004,14.424 22.004,13.592 C22.004,12.776 21.364,12.088 20.5,12.088 C19.62,12.088 18.996,12.776 18.996,13.592 C18.996,14.424 19.62,15.08 20.5,15.08 Z" id="10." fill="#D63030" fill-rule="nonzero"></path>
    </g>
</svg>