<?xml version="1.0" encoding="UTF-8"?>
<svg width="24px" height="20px" viewBox="0 0 24 20" version="1.1" xmlns="http://www.w3.org/2000/svg" xmlns:xlink="http://www.w3.org/1999/xlink">
    <!-- Generator: Sketch 62 (91390) - https://sketch.com -->
    <title>num-15</title>
    <desc>Created with Sketch.</desc>
    <g id="num-15" stroke="none" stroke-width="1" fill="none" fill-rule="evenodd">
        <path d="M9.196,15 L9.196,14.68 L7.852,13.832 L7.852,5.448 L7.708,5.448 L3.82,6.44 L3.852,6.744 L5.116,7.112 L5.116,13.832 L3.804,14.68 L3.804,15 L9.196,15 Z M13.452,16.184 C16.252,16.184 17.772,14.744 17.772,12.488 C17.772,10.632 16.396,9.176 14.124,9.176 C12.492,9.176 11.452,9.96 10.524,11.288 L10.492,11.288 L10.684,7.448 C12.396,7.656 13.308,7.736 14.268,7.736 C15.372,7.736 16.332,7.576 17.5,6.456 L17.5,5.672 L10.396,5.672 L10.172,11.56 L10.268,11.56 C11.42,11.288 11.756,11.208 12.716,11.208 C14.38,11.208 15.228,12.2 15.228,13.528 C15.228,14.904 14.396,15.816 13.116,15.816 L12.94,15.816 L10.348,12.472 L9.996,12.472 L9.98,15.592 C10.892,15.864 12.156,16.184 13.452,16.184 Z M19.932,15.08 C20.796,15.08 21.436,14.424 21.436,13.592 C21.436,12.776 20.796,12.088 19.932,12.088 C19.052,12.088 18.428,12.776 18.428,13.592 C18.428,14.424 19.052,15.08 19.932,15.08 Z" id="15." fill="#D63030" fill-rule="nonzero"></path>
    </g>
</svg>