<?xml version="1.0" encoding="UTF-8"?>
<svg width="24px" height="20px" viewBox="0 0 24 20" version="1.1" xmlns="http://www.w3.org/2000/svg" xmlns:xlink="http://www.w3.org/1999/xlink">
    <!-- Generator: Sketch 62 (91390) - https://sketch.com -->
    <title>num-04</title>
    <desc>Created with Sketch.</desc>
    <g id="num-04" stroke="none" stroke-width="1" fill="none" fill-rule="evenodd">
        <path d="M14.684,16.024 L14.684,15.704 L13.404,14.872 L13.404,13.048 L15.564,13.048 L15.564,12.712 L13.404,12.712 L13.404,5.624 L11.228,5.624 L5.756,12.712 L5.756,13.048 L10.732,13.048 L10.732,14.872 L9.26,15.704 L9.26,16.024 L14.684,16.024 Z M10.732,12.712 L6.204,12.712 L10.732,6.872 L10.732,12.712 Z M17.708,15.08 C18.572,15.08 19.212,14.424 19.212,13.592 C19.212,12.776 18.572,12.088 17.708,12.088 C16.828,12.088 16.204,12.776 16.204,13.592 C16.204,14.424 16.828,15.08 17.708,15.08 Z" id="4." fill="#D63030" fill-rule="nonzero"></path>
    </g>
</svg>