<?xml version="1.0" encoding="UTF-8"?>
<svg width="24px" height="20px" viewBox="0 0 24 20" version="1.1" xmlns="http://www.w3.org/2000/svg" xmlns:xlink="http://www.w3.org/1999/xlink">
    <!-- Generator: Sketch 62 (91390) - https://sketch.com -->
    <title>num-17</title>
    <desc>Created with Sketch.</desc>
    <g id="num-17" stroke="none" stroke-width="1" fill="none" fill-rule="evenodd">
        <path d="M10.252,15 L10.252,14.68 L8.908,13.832 L8.908,5.448 L8.764,5.448 L4.876,6.44 L4.908,6.744 L6.172,7.112 L6.172,13.832 L4.86,14.68 L4.86,15 L10.252,15 Z M14.972,16.072 L18.124,5.976 L18.124,5.672 L10.348,5.672 L10.348,9.56 L10.7,9.56 L13.228,6.584 L17.42,7.688 L11.18,15.752 L11.292,16.072 L14.972,16.072 Z M18.876,15.08 C19.74,15.08 20.38,14.424 20.38,13.592 C20.38,12.776 19.74,12.088 18.876,12.088 C17.996,12.088 17.372,12.776 17.372,13.592 C17.372,14.424 17.996,15.08 18.876,15.08 Z" id="17." fill="#D63030" fill-rule="nonzero"></path>
    </g>
</svg>