<?xml version="1.0" encoding="UTF-8"?>
<svg width="24px" height="20px" viewBox="0 0 24 20" version="1.1" xmlns="http://www.w3.org/2000/svg" xmlns:xlink="http://www.w3.org/1999/xlink">
    <!-- Generator: Sketch 62 (91390) - https://sketch.com -->
    <title>num-12</title>
    <desc>Created with Sketch.</desc>
    <g id="num-12" stroke="none" stroke-width="1" fill="none" fill-rule="evenodd">
        <path d="M9.38,15 L9.38,14.68 L8.036,13.832 L8.036,5.448 L7.892,5.448 L4.004,6.44 L4.036,6.744 L5.3,7.112 L5.3,13.832 L3.988,14.68 L3.988,15 L9.38,15 Z M17.396,15 L17.396,11.208 L17.06,11.208 L16.1,12.68 L11.652,12.68 L11.636,12.632 L13.748,11.736 C16.564,11 17.428,9.512 17.428,8.232 C17.428,6.52 15.972,5.464 13.796,5.464 C12.452,5.464 11.316,5.88 10.052,6.328 L10.052,9.384 L10.388,9.384 L13.172,5.752 C13.3,5.736 13.428,5.72 13.556,5.72 C14.34,5.72 14.932,6.008 14.932,7.336 C14.932,8.312 14.42,9.064 13.14,10.552 L9.556,14.776 L9.556,15 L17.396,15 Z M19.748,15.08 C20.612,15.08 21.252,14.424 21.252,13.592 C21.252,12.776 20.612,12.088 19.748,12.088 C18.868,12.088 18.244,12.776 18.244,13.592 C18.244,14.424 18.868,15.08 19.748,15.08 Z" id="12." fill="#D63030" fill-rule="nonzero"></path>
    </g>
</svg>