<?xml version="1.0" encoding="UTF-8"?>
<svg width="16px" height="59px" viewBox="0 0 16 59" version="1.1" xmlns="http://www.w3.org/2000/svg" xmlns:xlink="http://www.w3.org/1999/xlink">
    <!-- Generator: Sketch 62 (91390) - https://sketch.com -->
    <title>Group 2</title>
    <desc>Created with Sketch.</desc>
    <g id="Symbols" stroke="none" stroke-width="1" fill="none" fill-rule="evenodd">
        <g id="right-sidebar-test-tube" transform="translate(-16.000000, -9.000000)" fill="#4A4B4B">
            <g id="Group-2" transform="translate(15.028795, 9.000000)">
                <path d="M-4.1725884,45.6029829 C-2.39702191,45.6029829 -1.35298882,44.7542621 -1.34943768,43.4225872 C-1.35298882,42.2116509 -2.26562999,41.5688958 -3.52983333,41.2848052 L-4.1832418,41.1285553 C-4.81534347,40.9829589 -5.34446228,40.7485841 -5.33380888,40.2265675 C-5.33380888,39.757818 -4.91832633,39.4133581 -4.16548613,39.4133581 C-3.43040161,39.4133581 -2.97940772,39.7471646 -2.92258959,40.318897 L-1.44886941,40.318897 C-1.47017621,39.0227334 -2.5355161,38.1278479 -4.15483274,38.1278479 C-5.74929144,38.1278479 -6.91761419,39.0085289 -6.91051193,40.3295504 C-6.91406306,41.4019925 -6.15767173,42.0163385 -4.92897972,42.3110826 L-4.13707707,42.509946 C-3.34517442,42.7017072 -2.90483393,42.9289797 -2.90128279,43.4190361 C-2.90483393,43.951706 -3.40909481,44.3139216 -4.19034407,44.3139216 C-4.98934899,44.3139216 -5.56463253,43.9446038 -5.61434839,43.2166215 L-7.10227311,43.2166215 C-7.06321064,44.7897734 -5.93750149,45.6029829 -4.1725884,45.6029829 Z M1.2180377,45.5 L1.2180377,42.4957415 L4.33948359,42.4957415 L4.33948359,45.5 L5.87357304,45.5 L5.87357304,38.2272797 L4.33948359,38.2272797 L4.33948359,41.227987 L1.2180377,41.227987 L1.2180377,38.2272797 L-0.319602876,38.2272797 L-0.319602876,45.5 L1.2180377,45.5 Z M8.39488457,45.5 L8.93465678,43.8416209 L11.558944,43.8416209 L12.0987163,45.5 L13.746442,45.5 L11.2393421,38.2272797 L9.25780988,38.2272797 L6.74715886,45.5 L8.39488457,45.5 Z M11.1718706,42.641338 L9.32528141,42.641338 L10.2201669,39.8892099 L10.276985,39.8892099 L11.1718706,42.641338 Z M16.1576684,45.5 L16.1576684,42.9218775 L17.2798264,42.9218775 L18.657666,45.5 L20.3551076,45.5 L18.8103647,42.6732982 C19.6377787,42.3181849 20.0958749,41.5973049 20.0958749,40.6029876 C20.0958749,39.1576765 19.1406201,38.2272797 17.4893433,38.2272797 L14.6200278,38.2272797 L14.6200278,45.5 L16.1576684,45.5 Z M17.2017015,41.6860832 L16.1576684,41.6860832 L16.1576684,39.4843807 L17.1945992,39.4843807 C18.0823825,39.4843807 18.5120695,39.8785565 18.5120695,40.6029876 C18.5120695,41.3238676 18.0823825,41.6860832 17.2017015,41.6860832 Z M26.0972958,45.5 L26.0972958,44.2322455 L22.7201684,44.2322455 L22.7201684,42.4957415 L25.8309609,42.4957415 L25.8309609,41.227987 L22.7201684,41.227987 L22.7201684,39.4950341 L26.0830913,39.4950341 L26.0830913,38.2272797 L21.1825278,38.2272797 L21.1825278,45.5 L26.0972958,45.5 Z" id="SHARE" fill-rule="nonzero" transform="translate(9.497511, 41.865415) rotate(-270.000000) translate(-9.497511, -41.865415) "></path>
                <path d="M16.9712047,1.53779619 C16.5260782,2.20612779 15.9851149,2.77151733 15.3403944,3.24109155 L15.3403944,3.66790522 C15.3403944,4.54528842 15.2152521,5.4210879 14.9641754,6.29609551 C14.7083465,7.17347871 14.3202469,8.01601998 13.7959164,8.82451118 C13.2700018,9.63062679 12.6427061,10.3456783 11.9164055,10.9625388 C11.1877287,11.5793994 10.3149006,12.0719376 9.29712919,12.4433209 C8.27539759,12.8147043 7.18159035,13 6.00699504,13 C4.03243932,13 2.35252249,12.5525979 0.971204729,11.6665042 C1.23178589,11.702138 1.48840685,11.7219346 1.74819597,11.7219346 C3.16911572,11.7219346 4.52429616,11.2032649 5.82244972,10.1651337 C5.11991024,10.1524639 4.48627824,9.93470183 3.9231378,9.5070963 C3.36395756,9.08186636 2.97665,8.54260827 2.7667594,7.88932204 C2.97665,7.9257477 3.18178836,7.94554425 3.37979836,7.94554425 C3.6736452,7.94554425 3.96511592,7.90832673 4.24866624,7.8338917 C3.49622824,7.68502162 2.86814052,7.30888713 2.36836329,6.70469635 C1.86858605,6.09971371 1.61988549,5.40049948 1.61988549,4.60942925 L1.61988549,4.57458732 C2.08877317,4.83431808 2.58221408,4.9697265 3.10020824,4.9823963 C2.12441497,4.32831821 1.63731037,3.42005238 1.63731037,2.25997442 C1.63731037,1.71754888 1.78542185,1.18620942 2.08164481,0.668331607 C2.90774252,1.66607785 3.90492088,2.46110739 5.07317988,3.04629348 C6.23906276,3.63385515 7.49682227,3.96485351 8.84091415,4.03691296 C8.79180767,3.82786136 8.76883851,3.57604922 8.76883851,3.27910093 C8.76883851,2.37796187 9.08486247,1.60589633 9.72087059,0.964488031 C10.3552946,0.323079734 11.1338699,0 12.0463,0 C12.9848674,0 13.7864119,0.348419321 14.4525175,1.03813121 C15.1819864,0.890052994 15.8710612,0.62398733 16.5260782,0.243101663 C16.2821299,1.03338003 15.7997776,1.63757081 15.0829814,2.05488213 C15.7134452,1.98282268 16.3407409,1.81019675 16.9712047,1.53779619" id="Twitter-icon"></path>
            </g>
        </g>
    </g>
</svg>